<svg width="1024" height="1024" viewBox="0 0 1024 1024" xmlns="http://www.w3.org/2000/svg">
  <!-- Background -->
  <rect width="1024" height="1024" fill="#f3f4f6"/>
  
  <!-- Main icon container -->
  <rect x="128" y="128" width="768" height="768" 
        fill="#000000" stroke="#ef4444" stroke-width="16"/>
  
  <!-- Inner content -->
  <rect x="192" y="192" width="640" height="640" fill="#ffffff"/>
  
  <!-- Document/Web icon -->
  <g transform="translate(512, 400)">
    <!-- Document outline -->
    <rect x="-120" y="-140" width="240" height="280" 
          fill="#000000" stroke="#ef4444" stroke-width="8"/>
    <rect x="-100" y="-120" width="200" height="240" fill="#ffffff"/>
    
    <!-- Document lines -->
    <rect x="-80" y="-80" width="160" height="8" fill="#000000"/>
    <rect x="-80" y="-50" width="120" height="8" fill="#000000"/>
    <rect x="-80" y="-20" width="140" height="8" fill="#000000"/>
    <rect x="-80" y="10" width="100" height="8" fill="#000000"/>
    <rect x="-80" y="40" width="130" height="8" fill="#000000"/>
    
    <!-- Web globe -->
    <circle cx="0" cy="70" r="35" fill="#ef4444" stroke="#000000" stroke-width="4"/>
    <circle cx="0" cy="70" r="25" fill="#ffffff"/>
    
    <!-- Globe lines -->
    <ellipse cx="0" cy="70" rx="25" ry="15" 
             fill="none" stroke="#ef4444" stroke-width="3"/>
    <line x1="-25" y1="70" x2="25" y2="70" 
          stroke="#ef4444" stroke-width="3"/>
    <line x1="0" y1="45" x2="0" y2="95" 
          stroke="#ef4444" stroke-width="3"/>
  </g>
  
  
</svg>