<svg width="152" height="152" viewBox="0 0 152 152" xmlns="http://www.w3.org/2000/svg">
  <!-- Background -->
  <rect width="152" height="152" fill="#f3f4f6"/>
  
  <!-- Main icon container -->
  <rect x="19" y="19" width="114" height="114" 
        fill="#000000" stroke="#ef4444" stroke-width="2.375"/>
  
  <!-- Inner content -->
  <rect x="28.5" y="28.5" width="95" height="95" fill="#ffffff"/>
  
  <!-- Document/Web icon -->
  <g transform="translate(76, 59.375)">
    <!-- Document outline -->
    <rect x="-17.8125" y="-20.78125" width="35.625" height="41.5625" 
          fill="#000000" stroke="#ef4444" stroke-width="2"/>
    <rect x="-14.84375" y="-17.8125" width="29.6875" height="35.625" fill="#ffffff"/>
    
    <!-- Document lines -->
    <rect x="-11.875" y="-11.875" width="23.75" height="1.1875" fill="#000000"/>
    <rect x="-11.875" y="-7.421875" width="17.8125" height="1.1875" fill="#000000"/>
    <rect x="-11.875" y="-2.96875" width="20.78125" height="1.1875" fill="#000000"/>
    <rect x="-11.875" y="1.484375" width="14.84375" height="1.1875" fill="#000000"/>
    <rect x="-11.875" y="5.9375" width="19.296875" height="1.1875" fill="#000000"/>
    
    <!-- Web globe -->
    <circle cx="0" cy="10.390625" r="5.1953125" fill="#ef4444" stroke="#000000" stroke-width="1"/>
    <circle cx="0" cy="10.390625" r="3.7109375" fill="#ffffff"/>
    
    <!-- Globe lines -->
    <ellipse cx="0" cy="10.390625" rx="3.7109375" ry="2.2265625" 
             fill="none" stroke="#ef4444" stroke-width="1"/>
    <line x1="-3.7109375" y1="10.390625" x2="3.7109375" y2="10.390625" 
          stroke="#ef4444" stroke-width="1"/>
    <line x1="0" y1="6.6796875" x2="0" y2="14.1015625" 
          stroke="#ef4444" stroke-width="1"/>
  </g>
  
  
  <!-- Decorative elements -->
  <rect x="29.6875" y="29.6875" width="5.9375" height="5.9375" 
        fill="#ef4444" transform="rotate(45 32.65625 32.65625)"/>
  <rect x="116.375" y="29.6875" width="5.9375" height="5.9375" 
        fill="#facc15" transform="rotate(45 119.34375 32.65625)"/>
  <rect x="29.6875" y="116.375" width="5.9375" height="5.9375" 
        fill="#22c55e" transform="rotate(45 32.65625 119.34375)"/>
  <rect x="116.375" y="116.375" width="5.9375" height="5.9375" 
        fill="#3b82f6" transform="rotate(45 119.34375 119.34375)"/>
  
</svg>