<svg width="87" height="87" viewBox="0 0 87 87" xmlns="http://www.w3.org/2000/svg">
  <!-- Background -->
  <rect width="87" height="87" fill="#f3f4f6"/>
  
  <!-- Main icon container -->
  <rect x="10.875" y="10.875" width="65.25" height="65.25" 
        fill="#000000" stroke="#ef4444" stroke-width="1.359375"/>
  
  <!-- Inner content -->
  <rect x="16.3125" y="16.3125" width="54.375" height="54.375" fill="#ffffff"/>
  
  <!-- Document/Web icon -->
  <g transform="translate(43.5, 33.984375)">
    <!-- Document outline -->
    <rect x="-10.1953125" y="-11.89453125" width="20.390625" height="23.7890625" 
          fill="#000000" stroke="#ef4444" stroke-width="2"/>
    <rect x="-8.49609375" y="-10.1953125" width="16.9921875" height="20.390625" fill="#ffffff"/>
    
    <!-- Document lines -->
    <rect x="-6.796875" y="-6.796875" width="13.59375" height="0.6796875" fill="#000000"/>
    <rect x="-6.796875" y="-4.248046875" width="10.1953125" height="0.6796875" fill="#000000"/>
    <rect x="-6.796875" y="-1.69921875" width="11.89453125" height="0.6796875" fill="#000000"/>
    <rect x="-6.796875" y="0.849609375" width="8.49609375" height="0.6796875" fill="#000000"/>
    <rect x="-6.796875" y="3.3984375" width="11.044921875" height="0.6796875" fill="#000000"/>
    
    <!-- Web globe -->
    <circle cx="0" cy="5.947265625" r="2.9736328125" fill="#ef4444" stroke="#000000" stroke-width="1"/>
    <circle cx="0" cy="5.947265625" r="2.1240234375" fill="#ffffff"/>
    
    <!-- Globe lines -->
    <ellipse cx="0" cy="5.947265625" rx="2.1240234375" ry="1.2744140625" 
             fill="none" stroke="#ef4444" stroke-width="1"/>
    <line x1="-2.1240234375" y1="5.947265625" x2="2.1240234375" y2="5.947265625" 
          stroke="#ef4444" stroke-width="1"/>
    <line x1="0" y1="3.8232421875" x2="0" y2="8.0712890625" 
          stroke="#ef4444" stroke-width="1"/>
  </g>
  
  
  <!-- Decorative elements -->
  <rect x="16.9921875" y="16.9921875" width="3.3984375" height="3.3984375" 
        fill="#ef4444" transform="rotate(45 18.69140625 18.69140625)"/>
  <rect x="66.609375" y="16.9921875" width="3.3984375" height="3.3984375" 
        fill="#facc15" transform="rotate(45 68.30859375 18.69140625)"/>
  <rect x="16.9921875" y="66.609375" width="3.3984375" height="3.3984375" 
        fill="#22c55e" transform="rotate(45 18.69140625 68.30859375)"/>
  <rect x="66.609375" y="66.609375" width="3.3984375" height="3.3984375" 
        fill="#3b82f6" transform="rotate(45 68.30859375 68.30859375)"/>
  
</svg>