<svg width="36" height="36" viewBox="0 0 36 36" xmlns="http://www.w3.org/2000/svg">
  <!-- Background -->
  <rect width="36" height="36" fill="#f3f4f6"/>
  
  <!-- Main icon container -->
  <rect x="4.5" y="4.5" width="27" height="27" 
        fill="#000000" stroke="#ef4444" stroke-width="1"/>
  
  <!-- Inner content -->
  <rect x="6.75" y="6.75" width="22.5" height="22.5" fill="#ffffff"/>
  
  <!-- Document/Web icon -->
  <g transform="translate(18, 14.0625)">
    <!-- Document outline -->
    <rect x="-4.21875" y="-4.921875" width="8.4375" height="9.84375" 
          fill="#000000" stroke="#ef4444" stroke-width="2"/>
    <rect x="-3.515625" y="-4.21875" width="7.03125" height="8.4375" fill="#ffffff"/>
    
    <!-- Document lines -->
    <rect x="-2.8125" y="-2.8125" width="5.625" height="0.28125" fill="#000000"/>
    <rect x="-2.8125" y="-1.7578125" width="4.21875" height="0.28125" fill="#000000"/>
    <rect x="-2.8125" y="-0.703125" width="4.921875" height="0.28125" fill="#000000"/>
    <rect x="-2.8125" y="0.3515625" width="3.515625" height="0.28125" fill="#000000"/>
    <rect x="-2.8125" y="1.40625" width="4.5703125" height="0.28125" fill="#000000"/>
    
    <!-- Web globe -->
    <circle cx="0" cy="2.4609375" r="1.23046875" fill="#ef4444" stroke="#000000" stroke-width="1"/>
    <circle cx="0" cy="2.4609375" r="0.87890625" fill="#ffffff"/>
    
    <!-- Globe lines -->
    <ellipse cx="0" cy="2.4609375" rx="0.87890625" ry="0.52734375" 
             fill="none" stroke="#ef4444" stroke-width="1"/>
    <line x1="-0.87890625" y1="2.4609375" x2="0.87890625" y2="2.4609375" 
          stroke="#ef4444" stroke-width="1"/>
    <line x1="0" y1="1.58203125" x2="0" y2="3.33984375" 
          stroke="#ef4444" stroke-width="1"/>
  </g>
  
  
  <!-- Decorative elements -->
  <rect x="7.03125" y="7.03125" width="1.40625" height="1.40625" 
        fill="#ef4444" transform="rotate(45 7.734375 7.734375)"/>
  <rect x="27.5625" y="7.03125" width="1.40625" height="1.40625" 
        fill="#facc15" transform="rotate(45 28.265625 7.734375)"/>
  <rect x="7.03125" y="27.5625" width="1.40625" height="1.40625" 
        fill="#22c55e" transform="rotate(45 7.734375 28.265625)"/>
  <rect x="27.5625" y="27.5625" width="1.40625" height="1.40625" 
        fill="#3b82f6" transform="rotate(45 28.265625 28.265625)"/>
  
</svg>