<svg width="72" height="72" viewBox="0 0 72 72" xmlns="http://www.w3.org/2000/svg">
  <!-- Background -->
  <rect width="72" height="72" fill="#f3f4f6"/>
  
  <!-- Main icon container -->
  <rect x="9" y="9" width="54" height="54" 
        fill="#000000" stroke="#ef4444" stroke-width="1.125"/>
  
  <!-- Inner content -->
  <rect x="13.5" y="13.5" width="45" height="45" fill="#ffffff"/>
  
  <!-- Document/Web icon -->
  <g transform="translate(36, 28.125)">
    <!-- Document outline -->
    <rect x="-8.4375" y="-9.84375" width="16.875" height="19.6875" 
          fill="#000000" stroke="#ef4444" stroke-width="2"/>
    <rect x="-7.03125" y="-8.4375" width="14.0625" height="16.875" fill="#ffffff"/>
    
    <!-- Document lines -->
    <rect x="-5.625" y="-5.625" width="11.25" height="0.5625" fill="#000000"/>
    <rect x="-5.625" y="-3.515625" width="8.4375" height="0.5625" fill="#000000"/>
    <rect x="-5.625" y="-1.40625" width="9.84375" height="0.5625" fill="#000000"/>
    <rect x="-5.625" y="0.703125" width="7.03125" height="0.5625" fill="#000000"/>
    <rect x="-5.625" y="2.8125" width="9.140625" height="0.5625" fill="#000000"/>
    
    <!-- Web globe -->
    <circle cx="0" cy="4.921875" r="2.4609375" fill="#ef4444" stroke="#000000" stroke-width="1"/>
    <circle cx="0" cy="4.921875" r="1.7578125" fill="#ffffff"/>
    
    <!-- Globe lines -->
    <ellipse cx="0" cy="4.921875" rx="1.7578125" ry="1.0546875" 
             fill="none" stroke="#ef4444" stroke-width="1"/>
    <line x1="-1.7578125" y1="4.921875" x2="1.7578125" y2="4.921875" 
          stroke="#ef4444" stroke-width="1"/>
    <line x1="0" y1="3.1640625" x2="0" y2="6.6796875" 
          stroke="#ef4444" stroke-width="1"/>
  </g>
  
  
  <!-- Decorative elements -->
  <rect x="14.0625" y="14.0625" width="2.8125" height="2.8125" 
        fill="#ef4444" transform="rotate(45 15.46875 15.46875)"/>
  <rect x="55.125" y="14.0625" width="2.8125" height="2.8125" 
        fill="#facc15" transform="rotate(45 56.53125 15.46875)"/>
  <rect x="14.0625" y="55.125" width="2.8125" height="2.8125" 
        fill="#22c55e" transform="rotate(45 15.46875 56.53125)"/>
  <rect x="55.125" y="55.125" width="2.8125" height="2.8125" 
        fill="#3b82f6" transform="rotate(45 56.53125 56.53125)"/>
  
</svg>