<svg width="40" height="40" viewBox="0 0 40 40" xmlns="http://www.w3.org/2000/svg">
  <!-- Background -->
  <rect width="40" height="40" fill="#f3f4f6"/>
  
  <!-- Main icon container -->
  <rect x="5" y="5" width="30" height="30" 
        fill="#000000" stroke="#ef4444" stroke-width="1"/>
  
  <!-- Inner content -->
  <rect x="7.5" y="7.5" width="25" height="25" fill="#ffffff"/>
  
  <!-- Document/Web icon -->
  <g transform="translate(20, 15.625)">
    <!-- Document outline -->
    <rect x="-4.6875" y="-5.46875" width="9.375" height="10.9375" 
          fill="#000000" stroke="#ef4444" stroke-width="2"/>
    <rect x="-3.90625" y="-4.6875" width="7.8125" height="9.375" fill="#ffffff"/>
    
    <!-- Document lines -->
    <rect x="-3.125" y="-3.125" width="6.25" height="0.3125" fill="#000000"/>
    <rect x="-3.125" y="-1.953125" width="4.6875" height="0.3125" fill="#000000"/>
    <rect x="-3.125" y="-0.78125" width="5.46875" height="0.3125" fill="#000000"/>
    <rect x="-3.125" y="0.390625" width="3.90625" height="0.3125" fill="#000000"/>
    <rect x="-3.125" y="1.5625" width="5.078125" height="0.3125" fill="#000000"/>
    
    <!-- Web globe -->
    <circle cx="0" cy="2.734375" r="1.3671875" fill="#ef4444" stroke="#000000" stroke-width="1"/>
    <circle cx="0" cy="2.734375" r="0.9765625" fill="#ffffff"/>
    
    <!-- Globe lines -->
    <ellipse cx="0" cy="2.734375" rx="0.9765625" ry="0.5859375" 
             fill="none" stroke="#ef4444" stroke-width="1"/>
    <line x1="-0.9765625" y1="2.734375" x2="0.9765625" y2="2.734375" 
          stroke="#ef4444" stroke-width="1"/>
    <line x1="0" y1="1.7578125" x2="0" y2="3.7109375" 
          stroke="#ef4444" stroke-width="1"/>
  </g>
  
  
  <!-- Decorative elements -->
  <rect x="7.8125" y="7.8125" width="1.5625" height="1.5625" 
        fill="#ef4444" transform="rotate(45 8.59375 8.59375)"/>
  <rect x="30.625" y="7.8125" width="1.5625" height="1.5625" 
        fill="#facc15" transform="rotate(45 31.40625 8.59375)"/>
  <rect x="7.8125" y="30.625" width="1.5625" height="1.5625" 
        fill="#22c55e" transform="rotate(45 8.59375 31.40625)"/>
  <rect x="30.625" y="30.625" width="1.5625" height="1.5625" 
        fill="#3b82f6" transform="rotate(45 31.40625 31.40625)"/>
  
</svg>