<svg width="60" height="60" viewBox="0 0 60 60" xmlns="http://www.w3.org/2000/svg">
  <!-- Background -->
  <rect width="60" height="60" fill="#f3f4f6"/>
  
  <!-- Main icon container -->
  <rect x="7.5" y="7.5" width="45" height="45" 
        fill="#000000" stroke="#ef4444" stroke-width="1"/>
  
  <!-- Inner content -->
  <rect x="11.25" y="11.25" width="37.5" height="37.5" fill="#ffffff"/>
  
  <!-- Document/Web icon -->
  <g transform="translate(30, 23.4375)">
    <!-- Document outline -->
    <rect x="-7.03125" y="-8.203125" width="14.0625" height="16.40625" 
          fill="#000000" stroke="#ef4444" stroke-width="2"/>
    <rect x="-5.859375" y="-7.03125" width="11.71875" height="14.0625" fill="#ffffff"/>
    
    <!-- Document lines -->
    <rect x="-4.6875" y="-4.6875" width="9.375" height="0.46875" fill="#000000"/>
    <rect x="-4.6875" y="-2.9296875" width="7.03125" height="0.46875" fill="#000000"/>
    <rect x="-4.6875" y="-1.171875" width="8.203125" height="0.46875" fill="#000000"/>
    <rect x="-4.6875" y="0.5859375" width="5.859375" height="0.46875" fill="#000000"/>
    <rect x="-4.6875" y="2.34375" width="7.6171875" height="0.46875" fill="#000000"/>
    
    <!-- Web globe -->
    <circle cx="0" cy="4.1015625" r="2.05078125" fill="#ef4444" stroke="#000000" stroke-width="1"/>
    <circle cx="0" cy="4.1015625" r="1.46484375" fill="#ffffff"/>
    
    <!-- Globe lines -->
    <ellipse cx="0" cy="4.1015625" rx="1.46484375" ry="0.87890625" 
             fill="none" stroke="#ef4444" stroke-width="1"/>
    <line x1="-1.46484375" y1="4.1015625" x2="1.46484375" y2="4.1015625" 
          stroke="#ef4444" stroke-width="1"/>
    <line x1="0" y1="2.63671875" x2="0" y2="5.56640625" 
          stroke="#ef4444" stroke-width="1"/>
  </g>
  
  
  <!-- Decorative elements -->
  <rect x="11.71875" y="11.71875" width="2.34375" height="2.34375" 
        fill="#ef4444" transform="rotate(45 12.890625 12.890625)"/>
  <rect x="45.9375" y="11.71875" width="2.34375" height="2.34375" 
        fill="#facc15" transform="rotate(45 47.109375 12.890625)"/>
  <rect x="11.71875" y="45.9375" width="2.34375" height="2.34375" 
        fill="#22c55e" transform="rotate(45 12.890625 47.109375)"/>
  <rect x="45.9375" y="45.9375" width="2.34375" height="2.34375" 
        fill="#3b82f6" transform="rotate(45 47.109375 47.109375)"/>
  
</svg>