<svg width="120" height="120" viewBox="0 0 120 120" xmlns="http://www.w3.org/2000/svg">
  <!-- Background -->
  <rect width="120" height="120" fill="#f3f4f6"/>
  
  <!-- Main icon container -->
  <rect x="15" y="15" width="90" height="90" 
        fill="#000000" stroke="#ef4444" stroke-width="1.875"/>
  
  <!-- Inner content -->
  <rect x="22.5" y="22.5" width="75" height="75" fill="#ffffff"/>
  
  <!-- Document/Web icon -->
  <g transform="translate(60, 46.875)">
    <!-- Document outline -->
    <rect x="-14.0625" y="-16.40625" width="28.125" height="32.8125" 
          fill="#000000" stroke="#ef4444" stroke-width="2"/>
    <rect x="-11.71875" y="-14.0625" width="23.4375" height="28.125" fill="#ffffff"/>
    
    <!-- Document lines -->
    <rect x="-9.375" y="-9.375" width="18.75" height="0.9375" fill="#000000"/>
    <rect x="-9.375" y="-5.859375" width="14.0625" height="0.9375" fill="#000000"/>
    <rect x="-9.375" y="-2.34375" width="16.40625" height="0.9375" fill="#000000"/>
    <rect x="-9.375" y="1.171875" width="11.71875" height="0.9375" fill="#000000"/>
    <rect x="-9.375" y="4.6875" width="15.234375" height="0.9375" fill="#000000"/>
    
    <!-- Web globe -->
    <circle cx="0" cy="8.203125" r="4.1015625" fill="#ef4444" stroke="#000000" stroke-width="1"/>
    <circle cx="0" cy="8.203125" r="2.9296875" fill="#ffffff"/>
    
    <!-- Globe lines -->
    <ellipse cx="0" cy="8.203125" rx="2.9296875" ry="1.7578125" 
             fill="none" stroke="#ef4444" stroke-width="1"/>
    <line x1="-2.9296875" y1="8.203125" x2="2.9296875" y2="8.203125" 
          stroke="#ef4444" stroke-width="1"/>
    <line x1="0" y1="5.2734375" x2="0" y2="11.1328125" 
          stroke="#ef4444" stroke-width="1"/>
  </g>
  
  
  <!-- Decorative elements -->
  <rect x="23.4375" y="23.4375" width="4.6875" height="4.6875" 
        fill="#ef4444" transform="rotate(45 25.78125 25.78125)"/>
  <rect x="91.875" y="23.4375" width="4.6875" height="4.6875" 
        fill="#facc15" transform="rotate(45 94.21875 25.78125)"/>
  <rect x="23.4375" y="91.875" width="4.6875" height="4.6875" 
        fill="#22c55e" transform="rotate(45 25.78125 94.21875)"/>
  <rect x="91.875" y="91.875" width="4.6875" height="4.6875" 
        fill="#3b82f6" transform="rotate(45 94.21875 94.21875)"/>
  
</svg>