<svg width="512" height="512" viewBox="0 0 512 512" xmlns="http://www.w3.org/2000/svg">
  <!-- Background -->
  <rect width="512" height="512" fill="#f3f4f6"/>
  
  <!-- Main icon container -->
  <rect x="64" y="64" width="384" height="384" 
        fill="#000000" stroke="#ef4444" stroke-width="8"/>
  
  <!-- Inner content -->
  <rect x="96" y="96" width="320" height="320" fill="#ffffff"/>
  
  <!-- Document/Web icon -->
  <g transform="translate(256, 200)">
    <!-- Document outline -->
    <rect x="-60" y="-70" width="120" height="140" 
          fill="#000000" stroke="#ef4444" stroke-width="4"/>
    <rect x="-50" y="-60" width="100" height="120" fill="#ffffff"/>
    
    <!-- Document lines -->
    <rect x="-40" y="-40" width="80" height="4" fill="#000000"/>
    <rect x="-40" y="-25" width="60" height="4" fill="#000000"/>
    <rect x="-40" y="-10" width="70" height="4" fill="#000000"/>
    <rect x="-40" y="5" width="50" height="4" fill="#000000"/>
    <rect x="-40" y="20" width="65" height="4" fill="#000000"/>
    
    <!-- Web globe -->
    <circle cx="0" cy="35" r="17.5" fill="#ef4444" stroke="#000000" stroke-width="2"/>
    <circle cx="0" cy="35" r="12.5" fill="#ffffff"/>
    
    <!-- Globe lines -->
    <ellipse cx="0" cy="35" rx="12.5" ry="7.5" 
             fill="none" stroke="#ef4444" stroke-width="1.5"/>
    <line x1="-12.5" y1="35" x2="12.5" y2="35" 
          stroke="#ef4444" stroke-width="1.5"/>
    <line x1="0" y1="22.5" x2="0" y2="47.5" 
          stroke="#ef4444" stroke-width="1.5"/>
  </g>
  
  
  <!-- Decorative elements -->
  <rect x="100" y="100" width="20" height="20" 
        fill="#ef4444" transform="rotate(45 110 110)"/>
  <rect x="392" y="100" width="20" height="20" 
        fill="#facc15" transform="rotate(45 402 110)"/>
  <rect x="100" y="392" width="20" height="20" 
        fill="#22c55e" transform="rotate(45 110 402)"/>
  <rect x="392" y="392" width="20" height="20" 
        fill="#3b82f6" transform="rotate(45 402 402)"/>
  
</svg>