<svg width="1284" height="2778" viewBox="0 0 1284 2778" xmlns="http://www.w3.org/2000/svg">
  <!-- Background -->
  <rect width="1284" height="2778" fill="#f3f4f6"/>
  
  <!-- Center content -->
  <g transform="translate(642, 1389)">
    <!-- Main logo container -->
    <rect x="-150" y="-150" width="300" height="300" fill="#000000" stroke="#ef4444" stroke-width="8" transform="rotate(12)"/>
    
    <!-- Inner content -->
    <rect x="-120" y="-120" width="240" height="240" fill="#ffffff" transform="rotate(12)"/>
    
    <!-- Document/Web icon -->
    <g transform="rotate(12)">
      <!-- Document -->
      <rect x="-60" y="-70" width="120" height="140" fill="#000000" stroke="#ef4444" stroke-width="3"/>
      <rect x="-50" y="-60" width="100" height="120" fill="#ffffff"/>
      
      <!-- Document lines -->
      <rect x="-40" y="-40" width="80" height="4" fill="#000000"/>
      <rect x="-40" y="-25" width="60" height="4" fill="#000000"/>
      <rect x="-40" y="-10" width="70" height="4" fill="#000000"/>
      <rect x="-40" y="5" width="50" height="4" fill="#000000"/>
      
      <!-- Web globe -->
      <circle cx="0" cy="35" r="18" fill="#ef4444"/>
      <circle cx="0" cy="35" r="12" fill="#ffffff"/>
      
      <!-- Globe lines -->
      <ellipse cx="0" cy="35" rx="12" ry="7" fill="none" stroke="#ef4444" stroke-width="2"/>
      <line x1="-12" y1="35" x2="12" y2="35" stroke="#ef4444" stroke-width="2"/>
      <line x1="0" y1="23" x2="0" y2="47" stroke="#ef4444" stroke-width="2"/>
    </g>
    
    <!-- App title -->
    <text x="0" y="250" text-anchor="middle" font-family="Arial, sans-serif" font-size="48" font-weight="900" fill="#000000" transform="skewX(-5)">WEB RIPPER</text>
    <text x="0" y="300" text-anchor="middle" font-family="Arial, sans-serif" font-size="24" font-weight="700" fill="#dc2626">CONTENT EXTRACTOR</text>
  </g>
  
  <!-- Decorative elements -->
  <rect x="100" y="300" width="30" height="30" fill="#ef4444" transform="rotate(45 115 315)"/>
  <rect x="1154" y="400" width="25" height="25" fill="#facc15" transform="rotate(45 1166.5 412.5)"/>
  <rect x="150" y="2200" width="35" height="35" fill="#22c55e" transform="rotate(45 167.5 2217.5)"/>
  <rect x="1100" y="2100" width="20" height="20" fill="#3b82f6" transform="rotate(45 1110 2110)"/>
</svg>