<svg width="512" height="512" viewBox="0 0 512 512" fill="none" xmlns="http://www.w3.org/2000/svg">
  <!-- Background circle for maskable icon -->
  <circle cx="256" cy="256" r="256" fill="#000000"/>
  
  <!-- Main target/crosshair design -->
  <circle cx="256" cy="256" r="160" fill="none" stroke="#ef4444" stroke-width="16"/>
  <circle cx="256" cy="256" r="80" fill="none" stroke="#facc15" stroke-width="12"/>
  <circle cx="256" cy="256" r="32" fill="#ef4444"/>
  
  <!-- Crosshair lines -->
  <line x1="256" y1="50" x2="256" y2="110" stroke="#ef4444" stroke-width="12" stroke-linecap="round"/>
  <line x1="256" y1="402" x2="256" y2="462" stroke="#ef4444" stroke-width="12" stroke-linecap="round"/>
  <line x1="50" y1="256" x2="110" y2="256" stroke="#ef4444" stroke-width="12" stroke-linecap="round"/>
  <line x1="402" y1="256" x2="462" y2="256" stroke="#ef4444" stroke-width="12" stroke-linecap="round"/>
  
  <!-- Diagonal lines -->
  <line x1="92" y1="92" x2="134" y2="134" stroke="#facc15" stroke-width="8" stroke-linecap="round"/>
  <line x1="378" y1="378" x2="420" y2="420" stroke="#facc15" stroke-width="8" stroke-linecap="round"/>
  <line x1="420" y1="92" x2="378" y2="134" stroke="#facc15" stroke-width="8" stroke-linecap="round"/>
  <line x1="134" y1="378" x2="92" y2="420" stroke="#facc15" stroke-width="8" stroke-linecap="round"/>
  
  <!-- Corner brackets for "targeting" effect -->
  <path d="M80 160 L80 80 L160 80" fill="none" stroke="#ffffff" stroke-width="8" stroke-linecap="round" stroke-linejoin="round"/>
  <path d="M352 80 L432 80 L432 160" fill="none" stroke="#ffffff" stroke-width="8" stroke-linecap="round" stroke-linejoin="round"/>
  <path d="M432 352 L432 432 L352 432" fill="none" stroke="#ffffff" stroke-width="8" stroke-linecap="round" stroke-linejoin="round"/>
  <path d="M160 432 L80 432 L80 352" fill="none" stroke="#ffffff" stroke-width="8" stroke-linecap="round" stroke-linejoin="round"/>
  
  <!-- Additional detail rings -->
  <circle cx="256" cy="256" r="200" fill="none" stroke="#ffffff" stroke-width="2" opacity="0.3"/>
  <circle cx="256" cy="256" r="120" fill="none" stroke="#ffffff" stroke-width="2" opacity="0.3"/>
</svg>