<svg width="192" height="192" viewBox="0 0 192 192" fill="none" xmlns="http://www.w3.org/2000/svg">
  <!-- Background circle for maskable icon -->
  <circle cx="96" cy="96" r="96" fill="#000000"/>
  
  <!-- Main target/crosshair design -->
  <circle cx="96" cy="96" r="60" fill="none" stroke="#ef4444" stroke-width="6"/>
  <circle cx="96" cy="96" r="30" fill="none" stroke="#facc15" stroke-width="4"/>
  <circle cx="96" cy="96" r="12" fill="#ef4444"/>
  
  <!-- Crosshair lines -->
  <line x1="96" y1="20" x2="96" y2="40" stroke="#ef4444" stroke-width="4" stroke-linecap="round"/>
  <line x1="96" y1="152" x2="96" y2="172" stroke="#ef4444" stroke-width="4" stroke-linecap="round"/>
  <line x1="20" y1="96" x2="40" y2="96" stroke="#ef4444" stroke-width="4" stroke-linecap="round"/>
  <line x1="152" y1="96" x2="172" y2="96" stroke="#ef4444" stroke-width="4" stroke-linecap="round"/>
  
  <!-- Diagonal lines -->
  <line x1="35" y1="35" x2="50" y2="50" stroke="#facc15" stroke-width="3" stroke-linecap="round"/>
  <line x1="142" y1="142" x2="157" y2="157" stroke="#facc15" stroke-width="3" stroke-linecap="round"/>
  <line x1="157" y1="35" x2="142" y2="50" stroke="#facc15" stroke-width="3" stroke-linecap="round"/>
  <line x1="50" y1="142" x2="35" y2="157" stroke="#facc15" stroke-width="3" stroke-linecap="round"/>
  
  <!-- Corner brackets for "targeting" effect -->
  <path d="M30 60 L30 30 L60 30" fill="none" stroke="#ffffff" stroke-width="3" stroke-linecap="round" stroke-linejoin="round"/>
  <path d="M132 30 L162 30 L162 60" fill="none" stroke="#ffffff" stroke-width="3" stroke-linecap="round" stroke-linejoin="round"/>
  <path d="M162 132 L162 162 L132 162" fill="none" stroke="#ffffff" stroke-width="3" stroke-linecap="round" stroke-linejoin="round"/>
  <path d="M60 162 L30 162 L30 132" fill="none" stroke="#ffffff" stroke-width="3" stroke-linecap="round" stroke-linejoin="round"/>
</svg>