<svg width="80" height="80" viewBox="0 0 80 80" xmlns="http://www.w3.org/2000/svg">
  <!-- Background -->
  <rect width="80" height="80" fill="#f3f4f6"/>
  
  <!-- Main icon container -->
  <rect x="10" y="10" width="60" height="60" 
        fill="#000000" stroke="#ef4444" stroke-width="1.25"/>
  
  <!-- Inner content -->
  <rect x="15" y="15" width="50" height="50" fill="#ffffff"/>
  
  <!-- Document/Web icon -->
  <g transform="translate(40, 31.25)">
    <!-- Document outline -->
    <rect x="-9.375" y="-10.9375" width="18.75" height="21.875" 
          fill="#000000" stroke="#ef4444" stroke-width="2"/>
    <rect x="-7.8125" y="-9.375" width="15.625" height="18.75" fill="#ffffff"/>
    
    <!-- Document lines -->
    <rect x="-6.25" y="-6.25" width="12.5" height="0.625" fill="#000000"/>
    <rect x="-6.25" y="-3.90625" width="9.375" height="0.625" fill="#000000"/>
    <rect x="-6.25" y="-1.5625" width="10.9375" height="0.625" fill="#000000"/>
    <rect x="-6.25" y="0.78125" width="7.8125" height="0.625" fill="#000000"/>
    <rect x="-6.25" y="3.125" width="10.15625" height="0.625" fill="#000000"/>
    
    <!-- Web globe -->
    <circle cx="0" cy="5.46875" r="2.734375" fill="#ef4444" stroke="#000000" stroke-width="1"/>
    <circle cx="0" cy="5.46875" r="1.953125" fill="#ffffff"/>
    
    <!-- Globe lines -->
    <ellipse cx="0" cy="5.46875" rx="1.953125" ry="1.171875" 
             fill="none" stroke="#ef4444" stroke-width="1"/>
    <line x1="-1.953125" y1="5.46875" x2="1.953125" y2="5.46875" 
          stroke="#ef4444" stroke-width="1"/>
    <line x1="0" y1="3.515625" x2="0" y2="7.421875" 
          stroke="#ef4444" stroke-width="1"/>
  </g>
  
  
  <!-- Decorative elements -->
  <rect x="15.625" y="15.625" width="3.125" height="3.125" 
        fill="#ef4444" transform="rotate(45 17.1875 17.1875)"/>
  <rect x="61.25" y="15.625" width="3.125" height="3.125" 
        fill="#facc15" transform="rotate(45 62.8125 17.1875)"/>
  <rect x="15.625" y="61.25" width="3.125" height="3.125" 
        fill="#22c55e" transform="rotate(45 17.1875 62.8125)"/>
  <rect x="61.25" y="61.25" width="3.125" height="3.125" 
        fill="#3b82f6" transform="rotate(45 62.8125 62.8125)"/>
  
</svg>