<svg width="144" height="144" viewBox="0 0 144 144" xmlns="http://www.w3.org/2000/svg">
  <!-- Background -->
  <rect width="144" height="144" fill="#f3f4f6"/>
  
  <!-- Main icon container -->
  <rect x="18" y="18" width="108" height="108" 
        fill="#000000" stroke="#ef4444" stroke-width="2.25"/>
  
  <!-- Inner content -->
  <rect x="27" y="27" width="90" height="90" fill="#ffffff"/>
  
  <!-- Document/Web icon -->
  <g transform="translate(72, 56.25)">
    <!-- Document outline -->
    <rect x="-16.875" y="-19.6875" width="33.75" height="39.375" 
          fill="#000000" stroke="#ef4444" stroke-width="2"/>
    <rect x="-14.0625" y="-16.875" width="28.125" height="33.75" fill="#ffffff"/>
    
    <!-- Document lines -->
    <rect x="-11.25" y="-11.25" width="22.5" height="1.125" fill="#000000"/>
    <rect x="-11.25" y="-7.03125" width="16.875" height="1.125" fill="#000000"/>
    <rect x="-11.25" y="-2.8125" width="19.6875" height="1.125" fill="#000000"/>
    <rect x="-11.25" y="1.40625" width="14.0625" height="1.125" fill="#000000"/>
    <rect x="-11.25" y="5.625" width="18.28125" height="1.125" fill="#000000"/>
    
    <!-- Web globe -->
    <circle cx="0" cy="9.84375" r="4.921875" fill="#ef4444" stroke="#000000" stroke-width="1"/>
    <circle cx="0" cy="9.84375" r="3.515625" fill="#ffffff"/>
    
    <!-- Globe lines -->
    <ellipse cx="0" cy="9.84375" rx="3.515625" ry="2.109375" 
             fill="none" stroke="#ef4444" stroke-width="1"/>
    <line x1="-3.515625" y1="9.84375" x2="3.515625" y2="9.84375" 
          stroke="#ef4444" stroke-width="1"/>
    <line x1="0" y1="6.328125" x2="0" y2="13.359375" 
          stroke="#ef4444" stroke-width="1"/>
  </g>
  
  
  <!-- Decorative elements -->
  <rect x="28.125" y="28.125" width="5.625" height="5.625" 
        fill="#ef4444" transform="rotate(45 30.9375 30.9375)"/>
  <rect x="110.25" y="28.125" width="5.625" height="5.625" 
        fill="#facc15" transform="rotate(45 113.0625 30.9375)"/>
  <rect x="28.125" y="110.25" width="5.625" height="5.625" 
        fill="#22c55e" transform="rotate(45 30.9375 113.0625)"/>
  <rect x="110.25" y="110.25" width="5.625" height="5.625" 
        fill="#3b82f6" transform="rotate(45 113.0625 113.0625)"/>
  
</svg>