<svg width="29" height="29" viewBox="0 0 29 29" xmlns="http://www.w3.org/2000/svg">
  <!-- Background -->
  <rect width="29" height="29" fill="#f3f4f6"/>
  
  <!-- Main icon container -->
  <rect x="3.625" y="3.625" width="21.75" height="21.75" 
        fill="#000000" stroke="#ef4444" stroke-width="1"/>
  
  <!-- Inner content -->
  <rect x="5.4375" y="5.4375" width="18.125" height="18.125" fill="#ffffff"/>
  
  <!-- Document/Web icon -->
  <g transform="translate(14.5, 11.328125)">
    <!-- Document outline -->
    <rect x="-3.3984375" y="-3.96484375" width="6.796875" height="7.9296875" 
          fill="#000000" stroke="#ef4444" stroke-width="2"/>
    <rect x="-2.83203125" y="-3.3984375" width="5.6640625" height="6.796875" fill="#ffffff"/>
    
    <!-- Document lines -->
    <rect x="-2.265625" y="-2.265625" width="4.53125" height="0.2265625" fill="#000000"/>
    <rect x="-2.265625" y="-1.416015625" width="3.3984375" height="0.2265625" fill="#000000"/>
    <rect x="-2.265625" y="-0.56640625" width="3.96484375" height="0.2265625" fill="#000000"/>
    <rect x="-2.265625" y="0.283203125" width="2.83203125" height="0.2265625" fill="#000000"/>
    <rect x="-2.265625" y="1.1328125" width="3.681640625" height="0.2265625" fill="#000000"/>
    
    <!-- Web globe -->
    <circle cx="0" cy="1.982421875" r="0.9912109375" fill="#ef4444" stroke="#000000" stroke-width="1"/>
    <circle cx="0" cy="1.982421875" r="0.7080078125" fill="#ffffff"/>
    
    <!-- Globe lines -->
    <ellipse cx="0" cy="1.982421875" rx="0.7080078125" ry="0.4248046875" 
             fill="none" stroke="#ef4444" stroke-width="1"/>
    <line x1="-0.7080078125" y1="1.982421875" x2="0.7080078125" y2="1.982421875" 
          stroke="#ef4444" stroke-width="1"/>
    <line x1="0" y1="1.2744140625" x2="0" y2="2.6904296875" 
          stroke="#ef4444" stroke-width="1"/>
  </g>
  
  
  <!-- Decorative elements -->
  <rect x="5.6640625" y="5.6640625" width="1.1328125" height="1.1328125" 
        fill="#ef4444" transform="rotate(45 6.23046875 6.23046875)"/>
  <rect x="22.203125" y="5.6640625" width="1.1328125" height="1.1328125" 
        fill="#facc15" transform="rotate(45 22.76953125 6.23046875)"/>
  <rect x="5.6640625" y="22.203125" width="1.1328125" height="1.1328125" 
        fill="#22c55e" transform="rotate(45 6.23046875 22.76953125)"/>
  <rect x="22.203125" y="22.203125" width="1.1328125" height="1.1328125" 
        fill="#3b82f6" transform="rotate(45 22.76953125 22.76953125)"/>
  
</svg>