<svg width="167" height="167" viewBox="0 0 167 167" xmlns="http://www.w3.org/2000/svg">
  <!-- Background -->
  <rect width="167" height="167" fill="#f3f4f6"/>
  
  <!-- Main icon container -->
  <rect x="20.875" y="20.875" width="125.25" height="125.25" 
        fill="#000000" stroke="#ef4444" stroke-width="2.609375"/>
  
  <!-- Inner content -->
  <rect x="31.3125" y="31.3125" width="104.375" height="104.375" fill="#ffffff"/>
  
  <!-- Document/Web icon -->
  <g transform="translate(83.5, 65.234375)">
    <!-- Document outline -->
    <rect x="-19.5703125" y="-22.83203125" width="39.140625" height="45.6640625" 
          fill="#000000" stroke="#ef4444" stroke-width="2"/>
    <rect x="-16.30859375" y="-19.5703125" width="32.6171875" height="39.140625" fill="#ffffff"/>
    
    <!-- Document lines -->
    <rect x="-13.046875" y="-13.046875" width="26.09375" height="1.3046875" fill="#000000"/>
    <rect x="-13.046875" y="-8.154296875" width="19.5703125" height="1.3046875" fill="#000000"/>
    <rect x="-13.046875" y="-3.26171875" width="22.83203125" height="1.3046875" fill="#000000"/>
    <rect x="-13.046875" y="1.630859375" width="16.30859375" height="1.3046875" fill="#000000"/>
    <rect x="-13.046875" y="6.5234375" width="21.201171875" height="1.3046875" fill="#000000"/>
    
    <!-- Web globe -->
    <circle cx="0" cy="11.416015625" r="5.7080078125" fill="#ef4444" stroke="#000000" stroke-width="1"/>
    <circle cx="0" cy="11.416015625" r="4.0771484375" fill="#ffffff"/>
    
    <!-- Globe lines -->
    <ellipse cx="0" cy="11.416015625" rx="4.0771484375" ry="2.4462890625" 
             fill="none" stroke="#ef4444" stroke-width="1"/>
    <line x1="-4.0771484375" y1="11.416015625" x2="4.0771484375" y2="11.416015625" 
          stroke="#ef4444" stroke-width="1"/>
    <line x1="0" y1="7.3388671875" x2="0" y2="15.4931640625" 
          stroke="#ef4444" stroke-width="1"/>
  </g>
  
  
  <!-- Decorative elements -->
  <rect x="32.6171875" y="32.6171875" width="6.5234375" height="6.5234375" 
        fill="#ef4444" transform="rotate(45 35.87890625 35.87890625)"/>
  <rect x="127.859375" y="32.6171875" width="6.5234375" height="6.5234375" 
        fill="#facc15" transform="rotate(45 131.12109375 35.87890625)"/>
  <rect x="32.6171875" y="127.859375" width="6.5234375" height="6.5234375" 
        fill="#22c55e" transform="rotate(45 35.87890625 131.12109375)"/>
  <rect x="127.859375" y="127.859375" width="6.5234375" height="6.5234375" 
        fill="#3b82f6" transform="rotate(45 131.12109375 131.12109375)"/>
  
</svg>